<?xml version="1.0" standalone="no"?>
<!DOCTYPE svg PUBLIC "-//W3C//DTD SVG 20010904//EN"
 "http://www.w3.org/TR/2001/REC-SVG-20010904/DTD/svg10.dtd">
<svg version="1.0" xmlns="http://www.w3.org/2000/svg"
 width="355.000000pt" height="355.000000pt" viewBox="0 0 355.000000 355.000000"
 preserveAspectRatio="xMidYMid meet">
<metadata>
Created by potrace 1.11, written by Peter Selinger 2001-2013
</metadata>
<g transform="translate(0.000000,355.000000) scale(0.100000,-0.100000)"
fill="#000000" stroke="none">
<path d="M2990 3484 c-25 -7 -82 -24 -128 -37 -45 -14 -84 -25 -85 -25 -1 -1
-9 -3 -17 -6 -25 -8 -754 -217 -770 -221 -47 -11 -368 -107 -385 -115 -11 -5
-65 -19 -120 -31 -497 -104 -885 -387 -1074 -783 -41 -83 -89 -216 -97 -264
-3 -15 -7 -33 -10 -41 -2 -8 -7 -30 -10 -50 -3 -20 -8 -47 -10 -61 -13 -61
-12 -340 2 -434 70 -494 324 -917 692 -1152 125 -81 311 -157 442 -183 30 -6
69 -13 85 -17 63 -12 341 -11 430 2 554 83 998 382 1193 804 50 108 59 131 86
225 41 141 54 252 51 430 -5 343 -102 656 -293 943 -82 122 -162 210 -296 324
l-29 24 197 339 c108 186 195 339 194 339 -2 1 -23 -3 -48 -10z m-1611 -1221
c-27 -98 -55 -200 -63 -228 -9 -27 -18 -62 -22 -77 l-6 -28 53 16 c29 9 60 17
68 19 9 2 57 16 106 30 50 15 173 51 275 80 102 29 256 74 342 99 87 25 159
46 161 46 12 0 91 -129 130 -211 90 -190 140 -397 141 -589 1 -125 -3 -165
-25 -256 -13 -55 -74 -191 -95 -212 -8 -7 -14 -16 -14 -20 -1 -13 -86 -99
-135 -137 -91 -69 -250 -136 -365 -153 -58 -9 -192 -8 -252 1 -319 49 -582
375 -679 842 -24 113 -33 300 -18 390 32 207 136 381 291 486 50 34 129 76
149 78 3 1 -16 -79 -42 -176z"/>
</g>
</svg>
